<?xml version="1.0" encoding="UTF-8" standalone="no"?>
<svg
   xmlns:dc="http://purl.org/dc/elements/1.1/"
   xmlns:cc="http://creativecommons.org/ns#"
   xmlns:rdf="http://www.w3.org/1999/02/22-rdf-syntax-ns#"
   xmlns:svg="http://www.w3.org/2000/svg"
   xmlns="http://www.w3.org/2000/svg"
   viewBox="0 0 1600 1333.3333"
   height="1333.3333"
   width="1600"
   xml:space="preserve"
   id="svg2"
   version="1.1"><metadata
     id="metadata8"><rdf:RDF><cc:Work
         rdf:about=""><dc:format>image/svg+xml</dc:format><dc:type
           rdf:resource="http://purl.org/dc/dcmitype/StillImage" /></cc:Work></rdf:RDF></metadata><defs
     id="defs6"><clipPath
       id="clipPath22"
       clipPathUnits="userSpaceOnUse"><path
         id="path20"
         d="M 0,1000 H 1200 V 0 H 0 Z" /></clipPath></defs><g
     transform="matrix(1.3333333,0,0,-1.3333333,0,1333.3333)"
     id="g10"><g
       transform="translate(362.085,475.8389)"
       id="g12"><path
         id="path14"
         style="fill:#fbb03b;fill-opacity:1;fill-rule:nonzero;stroke:none"
         d="M 0,0 H 10.505 V -48.099 H 21.936 V 0 H 32.723 V 11.109 H 0 Z" /></g><g
       id="g16"><g
         clip-path="url(#clipPath22)"
         id="g18"><g
           transform="translate(412.2358,470.9678)"
           id="g24"><path
             id="path26"
             style="fill:#fbb03b;fill-opacity:1;fill-rule:nonzero;stroke:none"
             d="m 0,0 c -1.69,-1.127 -3.045,-2.776 -4.065,-4.95 v 5.514 h -9.418 v -43.792 h 10.907 v 17.71 l -0.04,2.134 c 0,6.117 0.584,10.224 1.751,12.316 1.167,2.093 2.596,3.14 4.287,3.14 0.831,0 1.891,-0.323 3.179,-0.967 l 3.421,9.459 C 8.466,1.314 6.977,1.69 5.555,1.69 3.542,1.69 1.691,1.128 0,0" /></g><g
           transform="translate(455.1421,450.0791)"
           id="g28"><path
             id="path30"
             style="fill:#fbb03b;fill-opacity:1;fill-rule:nonzero;stroke:none"
             d="m 0,0 c 0,-4.133 -0.229,-6.829 -0.687,-8.091 -0.618,-1.689 -1.566,-2.972 -2.844,-3.843 -1.278,-0.873 -2.831,-1.308 -4.66,-1.308 -1.83,0 -3.37,0.442 -4.62,1.328 -1.251,0.885 -2.159,2.127 -2.723,3.723 -0.565,1.596 -0.847,4.447 -0.847,8.553 V 21.453 H -27.49 V 3.22 c 0,-7.003 0.428,-11.834 1.287,-14.491 1.208,-3.836 3.294,-6.829 6.259,-8.974 2.965,-2.148 6.849,-3.221 11.652,-3.221 4.428,0 8.077,0.919 10.948,2.757 2.871,1.838 5.045,4.474 6.521,7.909 1.207,2.818 1.811,8.05 1.811,15.697 V 21.453 L 0,21.453 Z" /></g><g
           transform="translate(486.2158,455.1084)"
           id="g32"><path
             id="path34"
             style="fill:#fbb03b;fill-opacity:1;fill-rule:nonzero;stroke:none"
             d="m 0,0 c 1.236,2.715 2.58,4.601 4.033,5.675 2.309,1.722 4.998,2.58 8.065,2.58 2.815,0 5.296,-0.768 7.434,-2.292 C 21.67,4.43 23.104,2.444 23.826,0 Z m 11.548,17.547 c -6.496,0 -11.891,-2.201 -16.194,-6.622 -4.312,-4.411 -6.46,-9.96 -6.46,-16.636 0,-6.522 2.156,-11.954 6.478,-16.284 4.321,-4.33 9.915,-6.496 16.78,-6.496 4.43,0 8.255,0.785 11.476,2.345 3.221,1.58 5.981,3.998 8.291,7.272 l -9.256,4.349 c -2.959,-2.878 -6.487,-4.313 -10.592,-4.313 -3.428,0 -6.252,0.921 -8.471,2.761 -2.211,1.841 -3.573,4.312 -4.087,7.425 h 35.302 l 0.036,2.093 c 0,7.245 -2.156,13.073 -6.478,17.484 -4.321,4.421 -9.924,6.622 -16.825,6.622" /></g><g
           transform="translate(577.1636,465.2129)"
           id="g36"><path
             id="path38"
             style="fill:#1a6bbe;fill-opacity:1;fill-rule:nonzero;stroke:none"
             d="m 0,0 c -1.353,-0.938 -3.816,-1.408 -7.398,-1.408 h -3.536 v 12.152 h 3.094 c 2.995,0 5.052,-0.207 6.171,-0.622 C -0.541,9.707 0.352,9.013 1.02,8.065 1.696,7.108 2.03,5.981 2.03,4.69 2.03,2.508 1.354,0.947 0,0 m 10.141,-5.215 c 1.858,2.616 2.796,5.873 2.796,9.762 0,3.708 -0.848,6.91 -2.535,9.617 -1.687,2.715 -3.924,4.655 -6.694,5.818 -2.779,1.173 -7.434,1.75 -13.975,1.75 h -11.935 v -59.209 h 11.268 v 25.081 h 1.028 L 3.41,-37.477 H 15.734 L 1.705,-11.151 c 3.753,1.344 6.568,3.32 8.436,5.936" /></g><g
           transform="translate(609.8584,455.1084)"
           id="g40"><path
             id="path42"
             style="fill:#1a6bbe;fill-opacity:1;fill-rule:nonzero;stroke:none"
             d="m 0,0 c 1.235,2.715 2.58,4.601 4.032,5.675 2.31,1.722 4.998,2.58 8.066,2.58 2.824,0 5.296,-0.768 7.434,-2.292 C 21.67,4.43 23.104,2.444 23.826,0 Z m 11.557,17.547 c -6.496,0 -11.9,-2.201 -16.203,-6.622 -4.304,-4.411 -6.46,-9.96 -6.46,-16.636 0,-6.522 2.156,-11.954 6.478,-16.284 4.321,-4.33 9.914,-6.496 16.789,-6.496 4.421,0 8.246,0.785 11.467,2.345 3.221,1.58 5.981,3.998 8.291,7.272 l -9.257,4.349 c -2.95,-2.878 -6.477,-4.313 -10.582,-4.313 -3.437,0 -6.261,0.921 -8.48,2.761 -2.21,1.841 -3.573,4.312 -4.079,7.425 h 35.293 l 0.045,2.093 c 0,7.245 -2.165,13.073 -6.486,17.484 -4.312,4.421 -9.924,6.622 -16.816,6.622" /></g><g
           transform="translate(671.1406,445.6914)"
           id="g44"><path
             id="path46"
             style="fill:#1a6bbe;fill-opacity:1;fill-rule:nonzero;stroke:none"
             d="M 0,0 -11.063,25.841 H -22.259 L -3.582,-17.951 H 3.542 L 22.177,25.841 H 11.039 Z" /></g><g
           transform="translate(698.5322,471.5273)"
           id="g48"><path
             id="path50"
             style="fill:#1a6bbe;fill-opacity:1;fill-rule:nonzero;stroke:none"
             d="M 0,0 V -43.791 H 10.989 V -8.11 0 H 8.012 Z" /></g><g
           transform="translate(728.5566,455.1084)"
           id="g52"><path
             id="path54"
             style="fill:#1a6bbe;fill-opacity:1;fill-rule:nonzero;stroke:none"
             d="m 0,0 c 1.236,2.715 2.58,4.601 4.033,5.675 2.31,1.722 4.998,2.58 8.066,2.58 2.814,0 5.296,-0.768 7.433,-2.292 C 21.67,4.43 23.104,2.444 23.826,0 Z m 11.548,17.547 c -6.486,0 -11.891,-2.201 -16.194,-6.622 -4.312,-4.411 -6.459,-9.96 -6.459,-16.636 0,-6.522 2.156,-11.954 6.477,-16.284 4.321,-4.33 9.915,-6.496 16.78,-6.496 4.43,0 8.255,0.785 11.476,2.345 3.221,1.58 5.981,3.998 8.291,7.272 l -9.256,4.349 c -2.959,-2.878 -6.487,-4.313 -10.592,-4.313 -3.428,0 -6.252,0.921 -8.471,2.761 -2.21,1.841 -3.573,4.312 -4.087,7.425 h 35.302 l 0.045,2.093 c 0,7.245 -2.165,13.073 -6.487,17.484 -4.321,4.421 -9.924,6.622 -16.825,6.622" /></g><g
           transform="translate(812.3359,446.8994)"
           id="g56"><path
             id="path58"
             style="fill:#1a6bbe;fill-opacity:1;fill-rule:nonzero;stroke:none"
             d="m 0,0 -9.305,24.633 h -6.579 l -9.474,-24.915 -8.806,24.915 H -44.92 l 15.778,-43.792 h 6.883 l 9.62,24.955 9.338,-24.955 h 6.963 l 15.98,43.792 H 8.816 Z" /></g><g
           transform="translate(863.4326,447.9053)"
           id="g60"><path
             id="path62"
             style="fill:#1a6bbe;fill-opacity:1;fill-rule:nonzero;stroke:none"
             d="m 0,0 c -1.584,2.174 -4.495,4.307 -8.734,6.399 l -4.026,2.013 c -1.744,0.859 -2.837,1.535 -3.28,2.032 -0.442,0.496 -0.664,1.04 -0.664,1.63 0,0.779 0.349,1.43 1.046,1.953 0.698,0.523 1.665,0.785 2.898,0.785 2.254,0 4.764,-1.369 7.528,-4.106 l 6.801,6.803 c -1.745,2.335 -3.871,4.126 -6.379,5.373 -2.51,1.248 -5.186,1.871 -8.031,1.871 -4.159,0 -7.573,-1.227 -10.242,-3.683 -2.671,-2.455 -4.005,-5.413 -4.005,-8.874 0,-5.367 3.541,-9.835 10.626,-13.403 l 3.702,-1.852 c 3.194,-1.61 4.79,-3.259 4.79,-4.951 0,-0.912 -0.442,-1.718 -1.328,-2.414 -0.886,-0.699 -2.053,-1.047 -3.502,-1.047 -1.342,0 -2.878,0.462 -4.608,1.389 -1.731,0.926 -3.24,2.139 -4.529,3.642 l -6.761,-7.366 c 3.809,-4.991 8.908,-7.486 15.295,-7.486 4.802,0 8.632,1.302 11.491,3.904 2.857,2.603 4.286,5.85 4.286,9.741 C 2.374,-4.723 1.583,-2.174 0,0" /></g><g
           transform="translate(681.7793,552.1729)"
           id="g64"><path
             id="path66"
             style="fill:#fbb03b;fill-opacity:1;fill-rule:nonzero;stroke:none"
             d="M 0,0 C -0.496,-0.55 -1.02,-1.119 -1.696,-1.453 -2.599,-1.922 -3.6,-2.138 -4.61,-2.184 -4.691,-3.113 -4.646,-4.042 -4.664,-4.98 c -0.749,0.009 -1.507,0.009 -2.256,0.009 -0.18,0.929 0.145,1.876 -0.099,2.805 -1.795,-0.063 -3.59,-0.026 -5.395,-0.026 0,1.001 -0.009,2.003 0.018,3.004 0.695,-0.018 1.399,-0.009 2.093,0 0.009,3.311 0.009,6.622 0,9.933 -0.704,0.009 -1.398,0.009 -2.093,0 -0.009,0.965 -0.045,1.94 0,2.914 l 0.09,0.081 c 1.769,0.009 3.536,0.009 5.305,0 0.009,0.938 0.009,1.867 0.009,2.797 0.804,0.018 1.606,0.018 2.409,0 -0.009,-0.921 0.009,-1.85 0,-2.77 1.362,-0.126 2.814,-0.451 3.771,-1.507 1.083,-1.019 1.2,-2.715 0.667,-4.041 C -0.424,7.47 -1.028,6.929 -1.569,6.378 -0.749,5.972 0.027,5.395 0.424,4.547 1.083,3.104 0.966,1.281 0,0 m 86.653,-25.685 c 0.118,2.418 -0.396,4.854 -1.677,7.019 -3.925,7.885 -15.806,9.41 -21.734,2.95 -0.054,-0.045 -0.09,-0.099 -0.144,-0.153 -2.734,-2.553 -4.448,-6.18 -4.448,-10.213 0,-2.842 0.857,-5.485 2.31,-7.695 -10.592,-9.609 -21.093,-19.343 -31.811,-28.816 -1.696,1.886 -4.15,3.068 -6.883,3.068 -0.83,0 -1.642,-0.109 -2.41,-0.316 -6.422,17.195 -12.359,34.553 -18.828,51.721 0.317,0.162 0.623,0.325 0.93,0.496 4.321,2.463 7.298,7.127 7.677,12.089 0.036,1.011 0.036,2.021 -0.027,3.023 -0.379,3.464 -1.966,6.784 -4.457,9.229 -2.499,2.562 -5.936,4.141 -9.491,4.466 -1.452,0.027 -2.914,0.108 -4.339,-0.19 -3.771,-0.712 -7.217,-2.895 -9.527,-5.945 -1.497,-2.003 -2.499,-4.376 -2.869,-6.847 -0.225,-1.227 -0.144,-2.491 -0.135,-3.736 0.181,-2.417 0.975,-4.763 2.246,-6.811 -3.924,-2.878 -7.921,-5.675 -11.908,-8.462 -2.129,2.111 -5.062,3.419 -8.291,3.419 -6.505,0 -11.774,-5.269 -11.774,-11.773 0,-6.496 5.269,-11.765 11.774,-11.765 6.495,0 11.765,5.269 11.765,11.765 0,2.219 -0.632,4.294 -1.697,6.062 3.988,2.788 7.993,5.531 11.953,8.346 1.047,-1.128 2.247,-2.102 3.582,-2.86 2.373,-1.363 5.107,-2.138 7.84,-2.049 1.363,-0.053 2.725,0.136 4.042,0.497 6.189,-17.331 12.585,-34.599 18.765,-51.938 -2.454,-1.669 -4.068,-4.484 -4.068,-7.677 0,-5.107 4.14,-9.239 9.247,-9.239 0.505,0 1.001,0.037 1.479,0.118 1.092,0.171 2.12,0.541 3.05,1.064 2.814,1.579 4.718,4.592 4.718,8.057 0,1.173 -0.217,2.291 -0.614,3.319 10.465,9.951 21.274,19.649 32.09,29.258 2.518,-2.409 5.919,-3.889 9.672,-3.889 7.74,0 14.011,6.27 14.011,14.011 0,0.126 -0.019,0.262 -0.019,0.397" /></g><g
           transform="translate(677.6201,560.0308)"
           id="g68"><path
             id="path70"
             style="fill:#fbb03b;fill-opacity:1;fill-rule:nonzero;stroke:none"
             d="m 0,0 c 0.866,0.559 1.064,2.12 0.072,2.652 -0.83,0.388 -1.795,0.19 -2.688,0.244 V -0.316 C -1.741,-0.289 -0.794,-0.46 0,0" /></g><g
           transform="translate(675.0127,556.6743)"
           id="g72"><path
             id="path74"
             style="fill:#fbb03b;fill-opacity:1;fill-rule:nonzero;stroke:none"
             d="m 0,0 c -0.009,-1.227 -0.018,-2.463 0,-3.689 1.064,0.053 2.247,-0.235 3.221,0.36 0.974,0.596 1.038,2.165 0.163,2.869 C 2.373,0.163 1.128,0 0,0" /></g></g></g></g></svg>